<svg
   xmlns="http://www.w3.org/2000/svg"
   xmlns:xlink="http://www.w3.org/1999/xlink"
   height="32"
   width="32"
>
   <style>
      .path-fill {
         fill: #000;
      }

      @media (prefers-color-scheme:light) {
         .path-fill {
            fill: #000;
         }
      }

      @media (prefers-color-scheme:dark) {
         .path-fill {
            fill: #fff;
         }
      }

   </style>
   <defs>
      <path
         d="M0 .013h17.522v18.26H0z"
         id="prefix__a"
      />
   </defs>
   <g fill-rule="evenodd">
      <path
         d="M13.472 17.809h.003a.282.282 0 00.202-.086.277.277 0 00.081-.2.286.286 0 00-.286-.282h-.003a.286.286 0 00-.284.287.285.285 0 00.287.281m3.25 13.407V24.85l.223-.124 8.074-4.485zM7.988 20.24l8.309 4.607.046 6.415L7.989 20.24zm17.761-.665a.218.218 0 00-.095-.057c-.134-.046-4.156-1.505-4.156-1.505a.237.237 0 00-.174.005.232.232 0 00.015.434l3.736 1.309-8.37 4.652-.235.13-.232-.13-8.344-4.643.289-.099 3.503-1.193c.133-.047.168-.22.09-.316a.275.275 0 00-.319-.09s-4.018 1.4-4.146 1.452c-.061.025-.071.03-.097.056a.174.174 0 00-.016.229l9.033 12.07a.373.373 0 00.601 0l8.933-12.076a.174.174 0 00-.015-.23zm-6.16-1.766a.286.286 0 00.286-.284.286.286 0 00-.573 0c0 .156.128.284.286.284m-1.625-.569a.286.286 0 00.287-.284.286.286 0 00-.287-.284.286.286 0 00-.287.284c0 .157.13.284.287.284m-2.867 0h.002a.285.285 0 00.285-.287.287.287 0 00-.287-.281h-.003a.286.286 0 00-.284.287c.002.156.13.281.287.281"
         class="path-fill"
      />
      <g transform="matrix(1.07283 0 0 1.07283 7.084 .55)">
         <path
            d="M2.216 13.66h-.003a.266.266 0 10.003 0"
            class="path-fill"
         />
         <mask
            fill="#fff"
            id="prefix__b"
         >
            <use
               height="100%"
               width="100%"
               xlink:href="#prefix__a"
            />
         </mask>
         <path
            mask="url(#prefix__b)"
            d="M8.962 17.717V.861l7.96 13.281.112.186-8.072 3.39zm-.412.05l-3.748-1.56-1.222-.506.004-.001-3.096-1.29.112-.187L8.545.861l.005 16.615zm8.943-3.447l-.186-.311L9 .152a.29.29 0 00-.244-.14.29.29 0 00-.248.141L.215 14.093l-.187.31a.201.201 0 00.095.289l2.893 1.204 1.749.728 3.923 1.633c.048.02.1.021.153-.001l.024-.009.047-.015 8.486-3.624a.2.2 0 00.095-.288z"
            class="path-fill"
         />
         <path
            d="M7.443 11.62a.267.267 0 00.003.532h.003a.267.267 0 00.263-.269.268.268 0 00-.269-.263m-1.773.71a.262.262 0 00-.187.08.263.263 0 00-.076.188.266.266 0 10.263-.268m-1.772.62a.268.268 0 00-.264.27.266.266 0 10.264-.27m6.21-1.33a.269.269 0 00-.269.263.268.268 0 00.264.27.268.268 0 00.268-.264.265.265 0 00-.263-.269m1.772.71a.267.267 0 00-.268.263.267.267 0 00.263.269.269.269 0 00.27-.264.267.267 0 00-.264-.268m1.684.62h-.003a.269.269 0 00-.266.264c0 .07.027.138.076.189.05.05.117.079.188.08.07 0 .138-.027.189-.076a.271.271 0 00.08-.188.27.27 0 00-.264-.269m1.685.71h-.003a.266.266 0 00-.003.532h.003a.267.267 0 00.002-.532"
            class="path-fill"
         />
      </g>
   </g>
</svg>
