<?xml version="1.0" encoding="UTF-8" standalone="no"?>
<svg
   xmlns:dc="http://purl.org/dc/elements/1.1/"
   xmlns:cc="http://creativecommons.org/ns#"
   xmlns:rdf="http://www.w3.org/1999/02/22-rdf-syntax-ns#"
   xmlns:svg="http://www.w3.org/2000/svg"
   xmlns="http://www.w3.org/2000/svg"
   xmlns:xlink="http://www.w3.org/1999/xlink"
   xmlns:sodipodi="http://sodipodi.sourceforge.net/DTD/sodipodi-0.dtd"
   xmlns:inkscape="http://www.inkscape.org/namespaces/inkscape"
   inkscape:version="1.0 (6e3e5246a0, 2020-05-07)"
   sodipodi:docname="oe-logo-favicon-black.svg"
   id="svg22"
   version="1.1"
   viewBox="0 0 32 32"
   height="32"
   width="32">
  <metadata
     id="metadata26">
    <rdf:RDF>
      <cc:Work
         rdf:about="">
        <dc:format>image/svg+xml</dc:format>
        <dc:type
           rdf:resource="http://purl.org/dc/dcmitype/StillImage" />
      </cc:Work>
    </rdf:RDF>
  </metadata>
  <sodipodi:namedview
     inkscape:current-layer="g7"
     inkscape:window-maximized="1"
     inkscape:window-y="27"
     inkscape:window-x="0"
     inkscape:cy="12.691258"
     inkscape:cx="-11.187567"
     inkscape:zoom="8.71875"
     showgrid="false"
     id="namedview24"
     inkscape:window-height="704"
     inkscape:window-width="1366"
     inkscape:pageshadow="2"
     inkscape:pageopacity="0"
     guidetolerance="10"
     gridtolerance="10"
     objecttolerance="10"
     borderopacity="1"
     bordercolor="#666666"
     pagecolor="#ffffff" />
  <defs
     id="defs3">
    <path
       d="M0 0.013L17.522 0.013 17.522 18.273 0 18.273z"
       id="nuo1x8txba" />
  </defs>
  <g
     id="g20"
     fill-rule="evenodd"
     fill="none">
    <g
       transform="matrix(1.072829,0,0,1.072829,-0.53714396,-0.6189378)"
       id="g7"
       fill="#000">
      <path
         id="path5"
         transform="translate(7.178,16.117)"
         d="M 5.88,1.06 H 5.883 C 5.954,1.06 6.021,1.031 6.071,0.98 6.121,0.93 6.148,0.863 6.147,0.793 6.147,0.722 6.118,0.655 6.067,0.606 6.017,0.557 5.95,0.53 5.88,0.53 H 5.877 C 5.806,0.53 5.739,0.56 5.689,0.61 5.639,0.66 5.612,0.727 5.613,0.798 5.614,0.943 5.733,1.06 5.88,1.06 M 8.909,13.557 V 7.622 L 9.117,7.506 16.643,3.326 Z M 0.769,3.326 8.514,7.62 8.557,13.6 0.769,3.325 Z M 17.325,2.706 C 17.301,2.681 17.278,2.668 17.236,2.653 17.111,2.61 13.362,1.25 13.362,1.25 13.31,1.231 13.252,1.233 13.2,1.255 13.017,1.332 13.025,1.593 13.214,1.659 L 16.696,2.879 8.894,7.216 8.676,7.336 8.459,7.216 0.682,2.888 0.951,2.796 4.216,1.684 C 4.34,1.64 4.373,1.479 4.301,1.389 4.233,1.304 4.131,1.263 4.003,1.305 c 0,0 -3.745,1.305 -3.865,1.354 C 0.081,2.682 0.072,2.687 0.048,2.711 -0.01,2.771 -0.016,2.858 0.033,2.924 l 8.42,11.251 c 0.065,0.088 0.169,0.14 0.28,0.14 0.11,0 0.215,-0.053 0.28,-0.141 L 17.34,2.919 C 17.39,2.853 17.384,2.765 17.326,2.705 Z M 11.582,1.06 c 0.147,0 0.267,-0.119 0.267,-0.265 0,-0.146 -0.12,-0.265 -0.267,-0.265 -0.148,0 -0.267,0.12 -0.267,0.265 0,0.146 0.12,0.265 0.267,0.265 M 10.067,0.53 c 0.148,0 0.268,-0.119 0.268,-0.265 C 10.335,0.119 10.215,0 10.067,0 9.92,0 9.8,0.119 9.8,0.265 9.8,0.411 9.92,0.53 10.067,0.53 m -2.672,0 H 7.397 C 7.545,0.529 7.663,0.409 7.662,0.262 7.66,0.117 7.54,0 7.395,0 H 7.392 C 7.244,0.001 7.126,0.122 7.127,0.268 7.129,0.413 7.248,0.53 7.395,0.53" />
    </g>
    <g
       id="g18"
       transform="matrix(1.072829,0,0,1.072829,7.0843787,0.5493729)">
      <path
         id="path9"
         d="M 2.216,13.66 H 2.213 c -0.07,0 -0.137,0.03 -0.187,0.08 -0.05,0.05 -0.077,0.118 -0.076,0.189 0,0.071 0.03,0.138 0.08,0.187 0.05,0.05 0.118,0.075 0.189,0.076 0.07,0 0.137,-0.029 0.187,-0.08 0.05,-0.05 0.077,-0.117 0.076,-0.188 0,-0.072 -0.03,-0.138 -0.08,-0.188 C 2.352,13.687 2.286,13.66 2.216,13.66"
         fill="#000" />
      <mask
         fill="#ffffff"
         id="suyz1kiwkb">
        <use
           height="100%"
           width="100%"
           y="0"
           x="0"
           id="use11"
           xlink:href="#nuo1x8txba" />
      </mask>
      <path
         style="stroke-width:1.5;stroke-miterlimit:4;stroke-dasharray:none"
         id="path14"
         mask="url(#suyz1kiwkb)"
         d="M 8.962,17.717 V 0.861 l 7.96,13.281 0.112,0.186 -8.072,3.39 z M 8.55,17.767 4.802,16.207 3.58,15.701 3.584,15.7 0.488,14.41 0.6,14.223 8.545,0.861 8.55,17.476 Z M 17.493,14.32 17.307,14.009 9,0.152 C 8.948,0.066 8.856,0.014 8.756,0.012 8.655,0.012 8.56,0.066 8.508,0.153 l -8.293,13.94 -0.187,0.31 c -0.03,0.05 -0.036,0.11 -0.018,0.166 0.018,0.056 0.06,0.1 0.113,0.123 l 2.893,1.204 1.749,0.728 3.923,1.633 c 0.048,0.02 0.1,0.021 0.153,-0.001 l 0.024,-0.009 0.047,-0.015 8.486,-3.624 c 0.055,-0.023 0.096,-0.067 0.114,-0.122 0.018,-0.056 0.01,-0.116 -0.019,-0.166 z"
         fill="#000000" />
      <path
         id="path16"
         d="m 7.443,11.62 c -0.146,0.001 -0.264,0.122 -0.263,0.269 0.002,0.146 0.12,0.263 0.266,0.263 H 7.449 C 7.595,12.151 7.713,12.03 7.712,11.883 7.71,11.737 7.59,11.62 7.443,11.62 M 5.67,12.33 c -0.07,0 -0.137,0.029 -0.187,0.08 -0.05,0.05 -0.076,0.117 -0.076,0.188 0.002,0.147 0.122,0.265 0.269,0.264 C 5.823,12.86 5.941,12.74 5.939,12.592 5.938,12.446 5.816,12.328 5.67,12.33 m -1.772,0.62 c -0.147,0.002 -0.265,0.123 -0.264,0.27 0.002,0.146 0.122,0.263 0.27,0.263 0.146,-0.002 0.264,-0.122 0.262,-0.27 0,-0.07 -0.029,-0.137 -0.08,-0.186 C 4.036,12.977 3.968,12.95 3.898,12.95 m 6.21,-1.33 c -0.146,0 -0.267,0.117 -0.269,0.263 -0.001,0.147 0.117,0.268 0.264,0.27 0.146,-0.001 0.267,-0.117 0.268,-0.264 0.002,-0.147 -0.116,-0.268 -0.263,-0.269 m 1.772,0.71 c -0.145,-10e-4 -0.266,0.116 -0.268,0.263 -10e-4,0.147 0.117,0.267 0.263,0.269 0.147,0 0.268,-0.117 0.27,-0.264 0,-0.146 -0.117,-0.267 -0.264,-0.268 m 1.684,0.62 h -0.003 c -0.07,0 -0.136,0.027 -0.186,0.077 -0.05,0.05 -0.079,0.116 -0.08,0.187 0,0.07 0.027,0.138 0.076,0.189 0.05,0.05 0.117,0.079 0.188,0.08 0.07,0 0.138,-0.027 0.189,-0.076 0.05,-0.05 0.079,-0.117 0.08,-0.188 0,-0.07 -0.027,-0.138 -0.077,-0.189 -0.05,-0.05 -0.116,-0.079 -0.187,-0.08 m 1.685,0.71 h -0.003 c -0.146,0 -0.265,0.118 -0.266,0.264 -0.002,0.146 0.116,0.267 0.263,0.268 h 0.003 c 0.145,0 0.264,-0.117 0.266,-0.263 10e-4,-0.147 -0.117,-0.267 -0.264,-0.269"
         fill="#000" />
    </g>
  </g>
</svg>
