<?xml version="1.0" encoding="utf-8"?>
<svg width="196" height="205" xmlns="http://www.w3.org/2000/svg">
  <defs>
    <path id="prefix__a" d="M0 .144h194.685v202.885H0z"/>
  </defs>
  <g fill="none" fill-rule="evenodd" transform="translate(.985 .986)">
    <path d="M24.624 151.779h-.031a2.93 2.93 0 00-2.08.887 2.934 2.934 0 00-.844 2.1c.007.79.322 1.53.886 2.082.564.553 1.308.834 2.098.844a2.932 2.932 0 002.08-.887c.553-.564.853-1.31.845-2.1a2.938 2.938 0 00-.887-2.081 2.934 2.934 0 00-2.067-.845" style="fill: rgb(0, 0, 0);"/>
    <mask id="prefix__b" fill="#fff">
      <path d="M0 .144h194.685v202.885H0z" transform="matrix(1, 0, 0, 1, 0, 0)"/>
    </mask>
    <path d="M99.575 196.86V9.561l88.457 147.576 1.234 2.06-89.69 37.661zm-4.58.551L53.36 180.078c.052.038-5.882-2.422-13.585-5.618l.05-.017L5.42 160.12l1.248-2.084L94.939 9.562l.056 184.612v3.237zm99.373-38.302l-2.072-3.457L100.01 1.692a3.181 3.181 0 00-5.463.011L2.386 156.582l-2.07 3.455a2.24 2.24 0 00-.205 1.844 2.22 2.22 0 001.254 1.362l32.15 13.383 19.425 8.087 43.588 18.146c.535.225 1.12.234 1.704-.017l.264-.095c.16-.048.332-.101.526-.165l94.29-40.268a2.215 2.215 0 001.263-1.363c.2-.616.124-1.288-.207-1.842z" mask="url(#prefix__b)" style="fill: rgb(0, 0, 0);"/>
    <path d="M82.703 129.11a2.96 2.96 0 00-2.924 2.988 2.96 2.96 0 002.954 2.926h.031a2.96 2.96 0 002.924-2.987c-.017-1.63-1.357-2.93-2.985-2.926m-19.698 7.884a2.932 2.932 0 00-2.08.888 2.932 2.932 0 00-.844 2.1 2.963 2.963 0 002.985 2.926 2.96 2.96 0 002.924-2.987 2.966 2.966 0 00-2.985-2.927m-19.698 6.899a2.96 2.96 0 00-2.925 2.987c.017 1.63 1.354 2.925 2.986 2.927a2.959 2.959 0 002.037-5.069 2.95 2.95 0 00-2.098-.845m69.005-14.784c-1.623-.007-2.968 1.297-2.985 2.927a2.96 2.96 0 002.924 2.987c1.627-.006 2.968-1.296 2.985-2.926a2.96 2.96 0 00-2.924-2.987m19.698 7.884a2.968 2.968 0 00-2.985 2.927 2.96 2.96 0 002.925 2.987c1.623-.003 2.968-1.296 2.985-2.927a2.96 2.96 0 00-2.925-2.987m18.714 6.899h-.031c-.778 0-1.51.3-2.067.845a2.932 2.932 0 00-.887 2.082c-.008.79.292 1.535.844 2.1.552.563 1.29.879 2.08.887a2.988 2.988 0 002.098-.845 2.938 2.938 0 00.887-2.082 2.938 2.938 0 00-.844-2.1 2.936 2.936 0 00-2.08-.887m18.713 7.885h-.03a2.96 2.96 0 00-2.955 2.927 2.96 2.96 0 002.925 2.986h.03a2.96 2.96 0 002.955-2.926 2.96 2.96 0 00-2.925-2.987" style="fill: rgb(0, 0, 0);"/>
  </g>
</svg>