<svg xmlns="http://www.w3.org/2000/svg" width="196" height="162" viewBox="0 0 196 162">
    <g fill="#FFF" fill-rule="evenodd">
        <path d="M65.333 11.782h.03c.794-.008 1.537-.322 2.092-.884.555-.562.856-1.305.848-2.092-.008-.787-.325-1.523-.892-2.074-.559-.543-1.295-.841-2.077-.841h-.031c-.793.008-1.536.322-2.091.884-.555.562-.857 1.305-.848 2.091.017 1.614 1.346 2.916 2.969 2.916M98.988 150.634V84.685l2.31-1.283 83.62-46.448-85.93 113.68zM8.542 36.954l86.06 47.717.473 66.43L8.542 36.955zm183.954-6.896c-.26-.267-.513-.413-.983-.575-1.394-.482-43.042-15.59-43.042-15.59-.584-.212-1.228-.195-1.8.047-2.04.865-1.945 3.756.146 4.489l38.698 13.567-86.697 48.18-2.413 1.34-2.413-1.341L7.574 32.092l2.991-1.02L46.843 18.71c1.378-.482 1.75-2.27.946-3.275-.756-.945-1.891-1.404-3.31-.936 0 0-41.611 14.503-42.95 15.045-.63.255-.731.308-.994.577-.646.663-.715 1.639-.165 2.37l93.544 125.014c.73.976 1.884 1.55 3.11 1.55 1.235 0 2.395-.582 3.123-1.567l92.507-125.052c.557-.737.488-1.71-.158-2.377zM128.687 11.782c1.637 0 2.97-1.322 2.97-2.946s-1.333-2.945-2.97-2.945c-1.638 0-2.97 1.32-2.97 2.945 0 1.624 1.332 2.946 2.97 2.946M111.859 5.89c1.638 0 2.97-1.32 2.97-2.944 0-1.625-1.332-2.946-2.97-2.946-1.638 0-2.97 1.321-2.97 2.946 0 1.624 1.332 2.945 2.97 2.945M82.161 5.89h.031c1.638-.016 2.956-1.351 2.94-2.975C85.113 1.301 83.784 0 82.161 0h-.03c-1.639.017-2.957 1.351-2.94 2.976.017 1.613 1.346 2.915 2.97 2.915" transform="translate(1.98 1.964)"/>
    </g>
</svg>
