<svg xmlns="http://www.w3.org/2000/svg" width="196" height="162"><path d="M67.313 13.746h.03a2.963 2.963 0 002.092-.884 2.915 2.915 0 00.848-2.092 2.914 2.914 0 00-.892-2.074 2.961 2.961 0 00-2.077-.841h-.031a2.962 2.962 0 00-2.091.884 2.91 2.91 0 00-.848 2.091c.017 1.614 1.346 2.916 2.969 2.916m33.655 138.852V86.649l2.31-1.283 83.62-46.448-85.93 113.68zM10.522 38.918l86.06 47.717.473 66.43L10.522 38.919zm183.954-6.896c-.26-.267-.513-.413-.983-.575-1.394-.482-43.042-15.59-43.042-15.59a2.465 2.465 0 00-1.8.047c-2.04.865-1.945 3.756.146 4.489l38.698 13.567-86.697 48.18-2.413 1.34-2.413-1.341L9.554 34.056l2.991-1.02 36.278-12.362c1.378-.482 1.75-2.27.946-3.275-.756-.945-1.891-1.404-3.31-.936 0 0-41.611 14.503-42.95 15.045-.63.255-.731.308-.994.577-.646.663-.715 1.639-.165 2.37l93.544 125.014a3.882 3.882 0 003.11 1.55 3.881 3.881 0 003.123-1.567L194.634 34.4c.557-.737.488-1.71-.158-2.377zm-63.809-18.276c1.637 0 2.97-1.322 2.97-2.946s-1.333-2.945-2.97-2.945c-1.638 0-2.97 1.32-2.97 2.945 0 1.624 1.332 2.946 2.97 2.946m-16.828-5.892c1.638 0 2.97-1.32 2.97-2.944 0-1.625-1.332-2.946-2.97-2.946-1.638 0-2.97 1.321-2.97 2.946 0 1.624 1.332 2.945 2.97 2.945m-29.698-.001h.031c1.638-.016 2.956-1.351 2.94-2.975-.019-1.614-1.348-2.915-2.971-2.915h-.03c-1.639.017-2.957 1.351-2.94 2.976.017 1.613 1.346 2.915 2.97 2.915" fill="#FFF" fill-rule="evenodd"/></svg>