<svg xmlns="http://www.w3.org/2000/svg" xmlns:xlink="http://www.w3.org/1999/xlink" width="196" height="205" viewBox="0 0 196 205">
    <defs>
        <path id="prefix__a" d="M0 0.144L194.685 0.144 194.685 203.029 0 203.029z"/>
    </defs>
    <g fill="none" fill-rule="evenodd" transform="translate(.985 .986)">
        <path fill="#FFF" d="M24.624 151.779h-.031c-.79.008-1.529.323-2.08.887-.553.565-.853 1.31-.844 2.1.007.79.322 1.53.886 2.082.564.553 1.308.834 2.098.844.79-.008 1.528-.323 2.08-.887.553-.564.853-1.31.845-2.1-.008-.79-.324-1.529-.887-2.081-.557-.546-1.29-.845-2.067-.845"/>
        <mask id="prefix__b" fill="#fff">
            <use xlink:href="#prefix__a"/>
        </mask>
        <path fill="#FFF" d="M99.575 196.86V9.561l88.457 147.576 1.234 2.06-89.69 37.661zm-4.58.551L53.36 180.078c.052.038-5.882-2.422-13.585-5.618l.05-.017L5.42 160.12l1.248-2.084L94.939 9.562l.056 184.612v3.237zm99.373-38.302l-2.072-3.457L100.01 1.692C99.437.739 98.41.15 97.3.145c-1.127-.007-2.174.585-2.753 1.558L2.386 156.582l-2.07 3.455c-.331.556-.407 1.23-.205 1.844.202.618.659 1.113 1.254 1.362l32.15 13.383 19.425 8.087 43.588 18.146c.535.225 1.12.234 1.704-.017l.264-.095c.16-.048.332-.101.526-.165l94.29-40.268c.609-.254 1.063-.749 1.263-1.363.2-.616.124-1.288-.207-1.842z" mask="url(#prefix__b)"/>
        <path fill="#FFF" d="M82.703 129.11c-1.63.018-2.94 1.358-2.924 2.988.017 1.62 1.339 2.926 2.954 2.926h.031c1.629-.017 2.94-1.357 2.924-2.987-.017-1.63-1.357-2.93-2.985-2.926M63.005 136.995c-.79.008-1.528.324-2.08.888-.553.564-.853 1.31-.844 2.1.016 1.63 1.354 2.934 2.985 2.926 1.628-.017 2.94-1.357 2.924-2.987-.017-1.63-1.364-2.943-2.985-2.927M43.307 143.894c-1.63.017-2.942 1.357-2.925 2.987.017 1.63 1.354 2.925 2.986 2.927 1.628-.017 2.94-1.357 2.923-2.987-.007-.79-.323-1.53-.886-2.082-.564-.553-1.311-.85-2.098-.845M112.312 129.11c-1.623-.007-2.968 1.297-2.985 2.927-.017 1.63 1.295 2.97 2.924 2.987 1.627-.006 2.968-1.296 2.985-2.926.017-1.63-1.295-2.97-2.924-2.987M132.01 136.995c-1.622-.01-2.968 1.296-2.985 2.927-.016 1.63 1.296 2.97 2.925 2.987 1.623-.003 2.968-1.296 2.985-2.927.016-1.63-1.296-2.97-2.925-2.987M150.724 143.894h-.031c-.778 0-1.51.3-2.067.845-.564.552-.88 1.292-.887 2.082-.008.79.292 1.535.844 2.1.552.563 1.29.879 2.08.887.785-.003 1.534-.292 2.098-.845.564-.553.879-1.292.887-2.082.008-.79-.291-1.535-.844-2.1-.552-.563-1.29-.879-2.08-.887M169.437 151.779h-.03c-1.616 0-2.938 1.306-2.955 2.927-.016 1.63 1.296 2.97 2.925 2.986h.03c1.616 0 2.938-1.306 2.955-2.926.016-1.63-1.295-2.97-2.925-2.987"/>
    </g>
</svg>
