<svg xmlns="http://www.w3.org/2000/svg" width="36" height="36"><path fill="#EEE" d="M18 1c9.389 0 17 7.611 17 17s-7.611 17-17 17S1 27.389 1 18 8.611 1 18 1zm-2.673 9.335s-2.426-.127-5.107 1.9c0 0-2.682 4.815-2.682 10.644 0 0 1.533 2.661 5.618 2.788 0 0 .766-.887 1.277-1.52-2.298-.634-3.192-2.155-3.192-2.155s.128.127.51.254h.128c0 .126.128.126.128.126.51.254 1.022.507 1.405.634.766.253 1.66.507 2.68.76 1.278.253 2.937.38 4.725 0 .894-.127 1.787-.38 2.681-.76a12.215 12.215 0 002.17-1.14s-.893 1.52-3.32 2.153c.64.76 1.278 1.521 1.278 1.521 3.677-.114 5.286-2.28 5.477-2.528l.012-.017-.002-.324c-.095-5.455-2.48-9.944-2.667-10.288l-.011-.02c-2.408-1.793-4.816-1.895-5.083-1.901h-.024l-.256.253c3.192.887 4.597 2.28 4.597 2.28a16.324 16.324 0 00-5.49-1.773 18.03 18.03 0 00-3.703 0h-.256c-.638 0-2.298.253-4.085 1.14-.766.254-1.15.507-1.15.507s1.533-1.52 4.47-2.28zm6.758 6.503c1 0 1.751.915 1.877 2.091 0 1.176-.876 2.091-1.877 2.091s-1.877-.915-1.877-2.09c0-1.177.876-2.092 1.877-2.092zm-6.57 0c1.001 0 1.877.915 1.877 2.091 0 1.176-.876 2.091-1.877 2.091-1 0-1.877-.915-1.877-2.09 0-1.177.876-2.092 1.877-2.092z"/></svg>