<svg xmlns="http://www.w3.org/2000/svg" width="36" height="36"><path fill="#EEE" fill-rule="evenodd" d="M18 1c9.389 0 17 7.611 17 17s-7.611 17-17 17S1 27.389 1 18 8.611 1 18 1zm-5.287 8.167c-1.13-.596-1.962-.804-2.499-.625a5.573 5.573 0 00-.445 2.588c.06.535.179 1.01.356 1.428-.535.535-.906 1.056-1.115 1.56-.208.507-.312 1.147-.312 1.92 0 1.727.327 3.094.982 4.105.534.834 1.368 1.428 2.498 1.786.653.238 1.694.445 3.121.624-.476.417-.772 1.072-.892 1.963-.714.299-1.397.417-2.052.358-.951-.059-1.724-.596-2.32-1.607a2.84 2.84 0 00-.89-.98 2.108 2.108 0 00-.982-.448l-.356-.09c-.595 0-.803.15-.626.448.12.177.299.328.537.446.415.179.803.596 1.159 1.249l.445.893c.299.832.864 1.397 1.695 1.696.596.177 1.338.267 2.23.267l1.07-.18v3.66a.785.785 0 01-.222.58c-.068.068 1.585.105 3.395.111h1.086c1.825-.006 3.495-.043 3.414-.11a.72.72 0 01-.268-.581V25.23c0-1.249-.328-2.142-.98-2.677 1.425-.179 2.496-.386 3.21-.624 1.13-.358 1.962-.952 2.497-1.786.713-1.011 1.071-2.378 1.071-4.105 0-.773-.148-1.428-.445-1.963-.18-.417-.537-.922-1.072-1.517.12-.417.208-.893.269-1.428a5.537 5.537 0 00-.448-2.588c-.534-.179-1.366.029-2.496.625-.596.297-1.13.594-1.606.893a15.08 15.08 0 00-3.702-.448c-1.278 0-2.513.18-3.703.535zm-1.474 16.087c.054-.135.174-.175.364-.121.187.054.254.163.2.324-.052.11-.175.135-.362.081-.188-.053-.255-.149-.202-.284zm2.825-.137c.188-.026.294.028.322.163.027.135-.067.23-.282.284-.162 0-.255-.067-.283-.202-.027-.135.054-.217.243-.245zm-1.252.018c.188 0 .283.08.283.243 0 .109-.095.162-.283.162-.187 0-.282-.067-.282-.202s.095-.203.282-.203zm-2.36-.87c.078-.11.187-.081.32.081.135.162.176.27.121.324-.106.11-.227.096-.363-.04-.134-.136-.16-.258-.079-.365zm-.812-.875c.106-.081.215-.04.322.123.108.162.108.27 0 .324-.107.054-.216.014-.322-.12-.109-.136-.109-.245 0-.327zm-.426-.808c.081-.081.176-.067.283.042.108.107.108.189 0 .242-.054.11-.135.11-.241 0-.109-.107-.122-.202-.042-.284z"/></svg>