<svg xmlns="http://www.w3.org/2000/svg" width="36" height="36"><path fill="#EEE" fill-rule="evenodd" d="M18 1c9.389 0 17 7.611 17 17s-7.611 17-17 17S1 27.389 1 18 8.611 1 18 1zm4.543 8.854a4.14 4.14 0 00-2.334.699 4.214 4.214 0 00-1.567 1.874c-.341.783-.405 1.64-.192 2.572-1.748-.086-3.37-.52-4.86-1.302a12.619 12.619 0 01-3.84-3.08 3.92 3.92 0 00-.575 2.063c0 .741.17 1.419.512 2.033.34.614.81 1.11 1.407 1.493a4.398 4.398 0 01-1.919-.572v.064c0 1.016.32 1.905.96 2.666.64.763 1.45 1.25 2.43 1.461a5.732 5.732 0 01-1.919.064 3.896 3.896 0 001.47 2.065 4.04 4.04 0 002.433.794c-1.536 1.185-3.263 1.777-5.182 1.777H8.344c1.96 1.23 4.114 1.843 6.46 1.843 2.431 0 4.605-.614 6.524-1.843 1.705-1.1 3.05-2.604 4.03-4.509.895-1.778 1.343-3.62 1.343-5.525v-.509a9.28 9.28 0 002.111-2.16c-.81.34-1.621.552-2.43.636a4.274 4.274 0 001.854-2.287 7.98 7.98 0 01-2.687 1.016c-.809-.889-1.812-1.333-3.006-1.333z"/></svg>